<mxfile host="app.diagrams.net" modified="2021-11-10T07:14:42.229Z" agent="5.0 (Windows NT 10.0; Win64; x64) AppleWebKit/537.36 (KHTML, like Gecko) Chrome/95.0.4638.69 Safari/537.36" etag="ae2AU5C_YqUGdYaqSeFO" version="15.5.2" type="github">
  <diagram id="kgpKYQtTHZ0yAKxKKP6v" name="Page-1">
    <mxGraphModel dx="383" dy="653" grid="1" gridSize="10" guides="1" tooltips="1" connect="1" arrows="1" fold="1" page="1" pageScale="1" pageWidth="1169" pageHeight="1654" math="0" shadow="0">
      <root>
        <mxCell id="0" />
        <mxCell id="1" parent="0" />
        <mxCell id="3nuBFxr9cyL0pnOWT2aG-1" value="User" style="shape=umlLifeline;perimeter=lifelinePerimeter;container=1;collapsible=0;recursiveResize=0;rounded=0;shadow=0;strokeWidth=1;" parent="1" vertex="1">
          <mxGeometry x="80" y="80" width="100" height="1570" as="geometry" />
        </mxCell>
        <mxCell id="3nuBFxr9cyL0pnOWT2aG-5" value="StatSample" style="shape=umlLifeline;perimeter=lifelinePerimeter;container=1;collapsible=0;recursiveResize=0;rounded=0;shadow=0;strokeWidth=1;" parent="1" vertex="1">
          <mxGeometry x="280" y="80" width="100" height="1570" as="geometry" />
        </mxCell>
        <mxCell id="3nuBFxr9cyL0pnOWT2aG-6" value="" style="points=[];perimeter=orthogonalPerimeter;rounded=0;shadow=0;strokeWidth=1;" parent="3nuBFxr9cyL0pnOWT2aG-5" vertex="1">
          <mxGeometry x="45" y="80" width="10" height="1470" as="geometry" />
        </mxCell>
        <mxCell id="3nuBFxr9cyL0pnOWT2aG-8" value="main" style="verticalAlign=bottom;endArrow=block;entryX=0;entryY=0;shadow=0;strokeWidth=1;" parent="1" target="3nuBFxr9cyL0pnOWT2aG-6" edge="1">
          <mxGeometry relative="1" as="geometry">
            <mxPoint x="135" y="160.0000000000001" as="sourcePoint" />
          </mxGeometry>
        </mxCell>
        <mxCell id="QkMDThP16RGxQZJ2cedM-1" value="PropertiesLoader" style="shape=umlLifeline;perimeter=lifelinePerimeter;container=1;collapsible=0;recursiveResize=0;rounded=0;shadow=0;strokeWidth=1;" vertex="1" parent="1">
          <mxGeometry x="480" y="80" width="100" height="1570" as="geometry" />
        </mxCell>
        <mxCell id="QkMDThP16RGxQZJ2cedM-2" value="" style="points=[];perimeter=orthogonalPerimeter;rounded=0;shadow=0;strokeWidth=1;" vertex="1" parent="QkMDThP16RGxQZJ2cedM-1">
          <mxGeometry x="45" y="119" width="10" height="160" as="geometry" />
        </mxCell>
        <mxCell id="QkMDThP16RGxQZJ2cedM-22" value="" style="html=1;points=[];perimeter=orthogonalPerimeter;" vertex="1" parent="QkMDThP16RGxQZJ2cedM-1">
          <mxGeometry x="50" y="170" width="15" height="50" as="geometry" />
        </mxCell>
        <mxCell id="QkMDThP16RGxQZJ2cedM-23" value="classLoader" style="edgeStyle=orthogonalEdgeStyle;html=1;align=left;spacingLeft=2;endArrow=block;rounded=0;entryX=1;entryY=0;" edge="1" target="QkMDThP16RGxQZJ2cedM-22" parent="QkMDThP16RGxQZJ2cedM-1">
          <mxGeometry x="-0.0589" y="10" relative="1" as="geometry">
            <mxPoint x="60" y="160" as="sourcePoint" />
            <Array as="points">
              <mxPoint x="100" y="160" />
              <mxPoint x="100" y="170" />
            </Array>
            <mxPoint as="offset" />
          </mxGeometry>
        </mxCell>
        <mxCell id="QkMDThP16RGxQZJ2cedM-3" value="RestClient" style="shape=umlLifeline;perimeter=lifelinePerimeter;container=1;collapsible=0;recursiveResize=0;rounded=0;shadow=0;strokeWidth=1;" vertex="1" parent="1">
          <mxGeometry x="680" y="80" width="100" height="1570" as="geometry" />
        </mxCell>
        <mxCell id="QkMDThP16RGxQZJ2cedM-24" value="" style="html=1;points=[];perimeter=orthogonalPerimeter;" vertex="1" parent="QkMDThP16RGxQZJ2cedM-3">
          <mxGeometry x="45" y="330" width="10" height="340" as="geometry" />
        </mxCell>
        <mxCell id="QkMDThP16RGxQZJ2cedM-5" value="StatSample" style="shape=umlLifeline;perimeter=lifelinePerimeter;container=1;collapsible=0;recursiveResize=0;rounded=0;shadow=0;strokeWidth=1;" vertex="1" parent="1">
          <mxGeometry x="880" y="80" width="100" height="1570" as="geometry" />
        </mxCell>
        <mxCell id="QkMDThP16RGxQZJ2cedM-28" value="" style="html=1;points=[];perimeter=orthogonalPerimeter;" vertex="1" parent="QkMDThP16RGxQZJ2cedM-5">
          <mxGeometry x="45" y="360" width="10" height="260" as="geometry" />
        </mxCell>
        <mxCell id="QkMDThP16RGxQZJ2cedM-7" value="StatSample" style="shape=umlLifeline;perimeter=lifelinePerimeter;container=1;collapsible=0;recursiveResize=0;rounded=0;shadow=0;strokeWidth=1;" vertex="1" parent="1">
          <mxGeometry x="1080" y="80" width="100" height="1570" as="geometry" />
        </mxCell>
        <mxCell id="QkMDThP16RGxQZJ2cedM-8" value="" style="points=[];perimeter=orthogonalPerimeter;rounded=0;shadow=0;strokeWidth=1;" vertex="1" parent="QkMDThP16RGxQZJ2cedM-7">
          <mxGeometry x="45" y="80" width="10" height="160" as="geometry" />
        </mxCell>
        <mxCell id="QkMDThP16RGxQZJ2cedM-9" value="StatSample" style="shape=umlLifeline;perimeter=lifelinePerimeter;container=1;collapsible=0;recursiveResize=0;rounded=0;shadow=0;strokeWidth=1;" vertex="1" parent="1">
          <mxGeometry x="1280" y="80" width="100" height="1570" as="geometry" />
        </mxCell>
        <mxCell id="QkMDThP16RGxQZJ2cedM-10" value="" style="points=[];perimeter=orthogonalPerimeter;rounded=0;shadow=0;strokeWidth=1;" vertex="1" parent="QkMDThP16RGxQZJ2cedM-9">
          <mxGeometry x="45" y="80" width="10" height="160" as="geometry" />
        </mxCell>
        <mxCell id="QkMDThP16RGxQZJ2cedM-11" value="StatSample" style="shape=umlLifeline;perimeter=lifelinePerimeter;container=1;collapsible=0;recursiveResize=0;rounded=0;shadow=0;strokeWidth=1;" vertex="1" parent="1">
          <mxGeometry x="1480" y="80" width="100" height="1570" as="geometry" />
        </mxCell>
        <mxCell id="QkMDThP16RGxQZJ2cedM-12" value="" style="points=[];perimeter=orthogonalPerimeter;rounded=0;shadow=0;strokeWidth=1;" vertex="1" parent="QkMDThP16RGxQZJ2cedM-11">
          <mxGeometry x="45" y="80" width="10" height="160" as="geometry" />
        </mxCell>
        <mxCell id="QkMDThP16RGxQZJ2cedM-19" value="fromResource" style="verticalAlign=bottom;endArrow=block;shadow=0;strokeWidth=1;" edge="1" parent="1">
          <mxGeometry relative="1" as="geometry">
            <mxPoint x="337" y="200" as="sourcePoint" />
            <mxPoint x="527" y="200" as="targetPoint" />
          </mxGeometry>
        </mxCell>
        <mxCell id="QkMDThP16RGxQZJ2cedM-21" value="return" style="html=1;verticalAlign=bottom;endArrow=open;dashed=1;endSize=8;rounded=0;" edge="1" parent="1" source="QkMDThP16RGxQZJ2cedM-1">
          <mxGeometry relative="1" as="geometry">
            <mxPoint x="420" y="360" as="sourcePoint" />
            <mxPoint x="340" y="360" as="targetPoint" />
          </mxGeometry>
        </mxCell>
        <mxCell id="QkMDThP16RGxQZJ2cedM-26" value="return" style="html=1;verticalAlign=bottom;endArrow=open;dashed=1;endSize=8;exitX=0;exitY=0.95;rounded=0;" edge="1" parent="1">
          <mxGeometry relative="1" as="geometry">
            <mxPoint x="340" y="750" as="targetPoint" />
            <mxPoint x="725" y="749.9999999999993" as="sourcePoint" />
          </mxGeometry>
        </mxCell>
        <mxCell id="QkMDThP16RGxQZJ2cedM-25" value="of" style="html=1;verticalAlign=bottom;endArrow=block;entryX=0;entryY=0;rounded=0;" edge="1" target="QkMDThP16RGxQZJ2cedM-24" parent="1">
          <mxGeometry x="0.92" relative="1" as="geometry">
            <mxPoint x="350" y="410" as="sourcePoint" />
            <mxPoint as="offset" />
          </mxGeometry>
        </mxCell>
        <mxCell id="QkMDThP16RGxQZJ2cedM-27" value="" style="html=1;verticalAlign=bottom;endArrow=block;entryX=0;entryY=0;rounded=0;" edge="1" parent="1" target="QkMDThP16RGxQZJ2cedM-24">
          <mxGeometry relative="1" as="geometry">
            <mxPoint x="340" y="410" as="sourcePoint" />
          </mxGeometry>
        </mxCell>
        <mxCell id="QkMDThP16RGxQZJ2cedM-30" value="return" style="html=1;verticalAlign=bottom;endArrow=open;dashed=1;endSize=8;exitX=0;exitY=0.95;rounded=0;" edge="1" source="QkMDThP16RGxQZJ2cedM-28" parent="1">
          <mxGeometry relative="1" as="geometry">
            <mxPoint x="740" y="687" as="targetPoint" />
          </mxGeometry>
        </mxCell>
        <mxCell id="QkMDThP16RGxQZJ2cedM-29" value="readValue" style="html=1;verticalAlign=bottom;endArrow=block;entryX=0;entryY=0;rounded=0;" edge="1" target="QkMDThP16RGxQZJ2cedM-28" parent="1" source="QkMDThP16RGxQZJ2cedM-24">
          <mxGeometry relative="1" as="geometry">
            <mxPoint x="855" y="440" as="sourcePoint" />
          </mxGeometry>
        </mxCell>
      </root>
    </mxGraphModel>
  </diagram>
</mxfile>
